<?xml version="1.0" ?><!DOCTYPE svg  PUBLIC '-//W3C//DTD SVG 1.1//EN'  'http://www.w3.org/Graphics/SVG/1.1/DTD/svg11.dtd'><svg height="6.82666in" style="shape-rendering:geometricPrecision; text-rendering:geometricPrecision; image-rendering:optimizeQuality; fill-rule:evenodd; clip-rule:evenodd" viewBox="0 0 6.82666 6.82666" width="6.82666in" xml:space="preserve" xmlns="http://www.w3.org/2000/svg" xmlns:xlink="http://www.w3.org/1999/xlink"><defs><style type="text/css">
   <![CDATA[
    .fil1 {fill:none}
    .fil0 {fill:#212121;fill-rule:nonzero}
   ]]>
  </style></defs><g id="Layer_x0020_1"><g id="_264863776"><path class="fil0" d="M1.0275 1.65333l4.77166 0c0.0322126,0 0.0617795,0.0122717 0.0834843,0.0319843 0.0230472,0.020937 0.0373543,0.0502008 0.0373543,0.0826732l0 3.29069c0,0.0324646 -0.0143386,0.0617244 -0.0373701,0.0826457 -0.0217165,0.0197283 -0.051311,0.0320118 -0.0834685,0.0320118l-4.77166 0c-0.0321535,0 -0.0617677,-0.0122559 -0.0835,-0.0319961 -0.0230079,-0.0209055 -0.0373386,-0.0501457 -0.0373386,-0.0826614l0 -3.29069c0,-0.0325157 0.0142953,-0.0617638 0.0373228,-0.082689 0.0217165,-0.0197283 0.0513031,-0.0319685 0.0835157,-0.0319685zm4.77166 0.106669l-4.77166 0c-0.0049252,0 -0.00909843,0.00155118 -0.0118465,0.00404724 -0.00143307,0.00129921 -0.00232283,0.00272441 -0.00232283,0.00394094l0 3.29069c0,0.00118898 0.000901575,0.0026063 0.00233858,0.00391339 0.00276772,0.00251181 0.00694488,0.0040748 0.0118307,0.0040748l4.77166 0c0.0048622,0 0.00902756,-0.00157087 0.0117992,-0.00409055 0.00145669,-0.00132283 0.00237008,-0.00273622 0.00237008,-0.00389764l0 -3.29069c0,-0.00118504 -0.000905512,-0.00261024 -0.00235433,-0.0039252 -0.00275591,-0.00250394 -0.00692126,-0.00406299 -0.011815,-0.00406299z" id="_264863824"/><polygon class="fil0" id="_264863536" points="1.06334,1.66729 3.38701,3.77803 5.71067,1.66729 5.78234,1.74604 3.42284,3.88933 3.38701,3.92188 3.35117,3.88933 0.991669,1.74604 "/></g></g><rect class="fil1" height="6.82666" width="6.82666"/></svg>